<svg width="291" height="330" viewBox="0 0 291 330" fill="none" xmlns="http://www.w3.org/2000/svg">
<g clip-path="url(#clip0_184_932)">
<path d="M203.892 192.491C210.89 197.107 217.948 201.771 225.288 206.623C227.282 203.895 229.176 201.307 231.318 198.384C234.448 200.226 237.51 202 240.546 203.814C255.904 213.013 271.236 222.26 286.641 231.392C288.502 232.494 289.361 233.637 289.26 235.874C289.066 240.121 289.113 244.389 289.247 248.642C289.307 250.524 288.602 251.458 286.93 252.157C283.002 253.783 279.187 255.671 275.238 257.244C274.265 257.633 272.754 257.607 271.86 257.109C253.587 246.915 235.368 236.627 217.148 226.346C216.584 226.03 216.094 225.58 215.376 225.042C216.672 222.724 217.907 220.506 219.405 217.825C212.132 213.269 204.906 208.746 197.7 204.231C174.471 236.607 133.506 237.528 109.148 219.397C83.2328 200.111 75.9599 165.658 91.9698 137.469C107.308 110.468 141.229 99.1518 170.368 111.456C198.775 123.444 217.081 157.03 203.892 192.491ZM111.082 168.75C111.015 188.009 126.401 203.612 145.654 203.821C164.847 204.029 180.763 188.157 180.71 168.857C180.656 149.591 165.136 134.021 145.936 133.947C126.79 133.88 111.15 149.497 111.082 168.75Z" fill="#C2C2C2" fill-opacity="0.21"/>
<path d="M230.606 48.4033C250.344 59.3836 269.886 70.2295 289.375 81.1628C290.16 81.5995 290.973 82.8293 290.98 83.6894C291.027 106.517 290.966 129.338 290.926 152.165C290.926 152.266 290.852 152.367 290.812 152.467C273.593 154.853 246.415 146.11 230.969 123.028C214.22 97.9893 217.464 67.098 230.606 48.4033Z" fill="#C2C2C2" fill-opacity="0.21"/>
<path d="M206.041 34.8627C196.397 54.767 173.934 72.1311 145.083 71.7884C116.724 71.4524 94.7434 53.8732 85.7109 34.4864C90.573 31.6506 95.462 28.7812 100.364 25.9454C114.984 17.4918 129.591 9.00455 144.278 0.6719C145.466 -0.00680826 147.635 -0.275604 148.71 0.356065C167.399 11.3901 185.988 22.5854 204.59 33.7606C205.06 34.0361 205.463 34.4192 206.041 34.8627Z" fill="#C2C2C2" fill-opacity="0.21"/>
<path d="M86.6714 294.889C95.6703 275.28 117.59 259.408 142.525 258.017C174.155 256.249 197.633 275.435 206.988 295.184C204.362 296.71 201.696 298.269 199.023 299.814C182.086 309.605 165.136 319.363 148.233 329.221C146.46 330.255 145.204 330.269 143.425 329.194C124.964 318.025 106.442 306.958 87.9474 295.856C87.484 295.567 87.081 295.198 86.6714 294.889Z" fill="#C2C2C2" fill-opacity="0.21"/>
<path d="M62.7637 284.533C53.9193 279.762 45.0681 274.984 36.2237 270.206C25.2974 264.3 14.3913 258.359 3.43817 252.5C1.59139 251.512 0.637773 250.416 0.624342 248.125C0.510176 227.065 0.301993 206.011 -0.0002084 184.951C-0.0405019 182.384 0.604195 181.316 3.28372 181.329C29.4275 181.457 50.1048 192.068 63.4487 214.633C76.9202 237.42 76.3628 260.859 63.4353 283.969C63.395 284.063 63.2741 284.117 62.7637 284.533Z" fill="#C2C2C2" fill-opacity="0.21"/>
<path d="M61.3201 50.0361C66.7262 58.1269 70.0101 66.7485 71.407 76.0152C77.0078 113.196 53.2614 146.661 16.3861 153.549C12.1284 154.342 7.7163 154.335 3.37131 154.665C1.59168 154.799 0.785806 154.073 0.792522 152.138C0.846247 129.962 0.792522 107.78 0.946981 85.6045C0.953696 84.4621 2.31025 82.9031 3.44518 82.258C19.623 73.1391 35.8748 64.1412 52.1131 55.1164C55.1015 53.4498 58.1168 51.8035 61.3201 50.0361Z" fill="#C2C2C2" fill-opacity="0.21"/>
</g>
<defs>
<clipPath id="clip0_184_932">
<rect width="291" height="330" fill="white"/>
</clipPath>
</defs>
</svg>
