<svg width="746" height="97" viewBox="0 0 746 97" fill="none" xmlns="http://www.w3.org/2000/svg">
<path d="M22.5455 1.90909V95H0.045455V1.90909H22.5455ZM86.9886 29.8182C86.6856 26.4848 85.3371 23.8939 82.9432 22.0455C80.5795 20.1667 77.2008 19.2273 72.8068 19.2273C69.8977 19.2273 67.4735 19.6061 65.5341 20.3636C63.5947 21.1212 62.1402 22.1667 61.1705 23.5C60.2008 24.803 59.7008 26.303 59.6705 28C59.6098 29.3939 59.8826 30.6212 60.4886 31.6818C61.125 32.7424 62.0341 33.6818 63.2159 34.5C64.428 35.2879 65.8826 35.9848 67.5795 36.5909C69.2765 37.197 71.1856 37.7273 73.3068 38.1818L81.3068 40C85.9129 41 89.9735 42.3333 93.4886 44C97.0341 45.6667 100.004 47.6515 102.398 49.9545C104.822 52.2576 106.655 54.9091 107.898 57.9091C109.14 60.9091 109.777 64.2727 109.807 68C109.777 73.8788 108.292 78.9242 105.352 83.1364C102.413 87.3485 98.1856 90.5758 92.6705 92.8182C87.1856 95.0606 80.5644 96.1818 72.8068 96.1818C65.0189 96.1818 58.2311 95.0152 52.4432 92.6818C46.6553 90.3485 42.1553 86.803 38.9432 82.0455C35.7311 77.2879 34.0795 71.2727 33.9886 64H55.5341C55.7159 67 56.5189 69.5 57.9432 71.5C59.3674 73.5 61.322 75.0152 63.8068 76.0455C66.322 77.0758 69.2311 77.5909 72.5341 77.5909C75.5644 77.5909 78.1402 77.1818 80.2614 76.3636C82.4129 75.5455 84.0644 74.4091 85.2159 72.9545C86.3674 71.5 86.9583 69.8333 86.9886 67.9545C86.9583 66.197 86.4129 64.697 85.3523 63.4545C84.2917 62.1818 82.6553 61.0909 80.4432 60.1818C78.2614 59.2424 75.4735 58.3788 72.0795 57.5909L62.3523 55.3182C54.2917 53.4697 47.9432 50.4848 43.3068 46.3636C38.6705 42.2121 36.3674 36.6061 36.3977 29.5455C36.3674 23.7879 37.9129 18.7424 41.0341 14.4091C44.1553 10.0758 48.4735 6.69697 53.9886 4.27273C59.5038 1.84848 65.7917 0.63636 72.8523 0.63636C80.0644 0.63636 86.322 1.86363 91.625 4.31818C96.9583 6.74242 101.095 10.1515 104.034 14.5455C106.973 18.9394 108.473 24.0303 108.534 29.8182H86.9886ZM121.17 95V1.90909H143.67V39.2727H180.352V1.90909H202.807V95H180.352V57.5909H143.67V95H121.17ZM241.375 20.1818V1.90909H320.057V20.1818H291.83V95H269.648V20.1818H241.375ZM414.659 48.4545C414.659 58.697 412.689 67.3788 408.75 74.5C404.811 81.6212 399.477 87.0303 392.75 90.7273C386.053 94.4242 378.538 96.2727 370.205 96.2727C361.841 96.2727 354.311 94.4091 347.614 90.6818C340.917 86.9545 335.598 81.5455 331.659 74.4545C327.75 67.3333 325.795 58.6667 325.795 48.4545C325.795 38.2121 327.75 29.5303 331.659 22.4091C335.598 15.2879 340.917 9.87879 347.614 6.18182C354.311 2.48485 361.841 0.63636 370.205 0.63636C378.538 0.63636 386.053 2.48485 392.75 6.18182C399.477 9.87879 404.811 15.2879 408.75 22.4091C412.689 29.5303 414.659 38.2121 414.659 48.4545ZM391.659 48.4545C391.659 42.3939 390.795 37.2727 389.068 33.0909C387.371 28.9091 384.917 25.7424 381.705 23.5909C378.523 21.4394 374.689 20.3636 370.205 20.3636C365.75 20.3636 361.917 21.4394 358.705 23.5909C355.492 25.7424 353.023 28.9091 351.295 33.0909C349.598 37.2727 348.75 42.3939 348.75 48.4545C348.75 54.5151 349.598 59.6364 351.295 63.8182C353.023 68 355.492 71.1667 358.705 73.3182C361.917 75.4697 365.75 76.5455 370.205 76.5455C374.689 76.5455 378.523 75.4697 381.705 73.3182C384.917 71.1667 387.371 68 389.068 63.8182C390.795 59.6364 391.659 54.5151 391.659 48.4545ZM427.795 95V1.90909H466.25C473.22 1.90909 479.235 3.27273 484.295 6C489.386 8.69697 493.311 12.4697 496.068 17.3182C498.826 22.1364 500.205 27.7424 500.205 34.1364C500.205 40.5606 498.795 46.1818 495.977 51C493.189 55.7879 489.205 59.5 484.023 62.1364C478.841 64.7727 472.689 66.0909 465.568 66.0909H441.841V48.3636H461.386C464.78 48.3636 467.614 47.7727 469.886 46.5909C472.189 45.4091 473.932 43.7576 475.114 41.6364C476.295 39.4848 476.886 36.9848 476.886 34.1364C476.886 31.2576 476.295 28.7727 475.114 26.6818C473.932 24.5606 472.189 22.9242 469.886 21.7727C467.583 20.6212 464.75 20.0455 461.386 20.0455H450.295V95H427.795ZM545.705 95H511.295V1.90909H545.659C555.144 1.90909 563.311 3.77273 570.159 7.5C577.038 11.197 582.341 16.5303 586.068 23.5C589.795 30.4394 591.659 38.7424 591.659 48.4091C591.659 58.1061 589.795 66.4394 586.068 73.4091C582.371 80.3788 577.083 85.7273 570.205 89.4545C563.326 93.1515 555.159 95 545.705 95ZM533.795 75.8182H544.841C550.053 75.8182 554.462 74.9394 558.068 73.1818C561.705 71.3939 564.447 68.5 566.295 64.5C568.174 60.4697 569.114 55.1061 569.114 48.4091C569.114 41.7121 568.174 36.3788 566.295 32.4091C564.417 28.4091 561.644 25.5303 557.977 23.7727C554.341 21.9848 549.856 21.0909 544.523 21.0909H533.795V75.8182ZM627.295 1.90909V95H604.795V1.90909H627.295ZM641.42 1.90909H669.284L692.92 59.5455H694.011L717.648 1.90909H745.511V95H723.602V37.8182H722.83L700.466 94.4091H686.466L664.102 37.5H663.33V95H641.42V1.90909Z" fill="#0D1D2C"/>
</svg>
